<?xml version="1.0" encoding="utf-8"?>
<!-- Generator: Adobe Illustrator 16.0.0, SVG Export Plug-In . SVG Version: 6.00 Build 0)  -->
<!DOCTYPE svg PUBLIC "-//W3C//DTD SVG 1.1//EN" "http://www.w3.org/Graphics/SVG/1.1/DTD/svg11.dtd">
<svg version="1.1" id="图层_1" xmlns="http://www.w3.org/2000/svg" xmlns:xlink="http://www.w3.org/1999/xlink" x="0px" y="0px"
	 width="120px" height="32px" viewBox="0 0 120 32" enable-background="new 0 0 120 32" xml:space="preserve">
<g>
	<g>
		<g>
			<path fill="#65A031" d="M10.373,1.182c0,0-8.976,0.854-10.126,8.608c-0.513,3.458-0.998,16.557,7.076,19.907
				c11.927,4.949,22.408-3.09,20.591-15.66C27.223,9.254,26.104-1.243,10.373,1.182"/>
			<g>
				<path fill="#FFFFFF" d="M18.773,20.785h0.85v1.072c0,0.918,0.188,1.213,1.017,1.213h1.288v-0.927h-1.102
					c-0.147,0-0.167-0.041-0.167-0.286v-1.072h1.263v-0.967h-5.281v0.967h1.115c-0.074,0.817-0.035,0.935-1.115,1.484v1.059
					C18.564,22.563,18.646,22.117,18.773,20.785"/>
				<path fill="#FFFFFF" d="M17.234,19.138h4.041v-0.005l0.006,0.005c0,0,0.342-0.048,0.443-0.2v-0.951c0,0-0.177,0.12-0.443,0.181
					c-0.002,0-0.004,0.001-0.006,0.002v-0.002h-4.041c-0.266-0.061-0.444-0.181-0.444-0.181v0.951
					C16.892,19.09,17.234,19.138,17.234,19.138"/>
				<path fill="#FFFFFF" d="M9.592,9.602V7.99h2.515V7.983l0.008,0.007c0,0,0.26,0.007,0.511-0.03c0,0,0.458-0.054,0.458-0.618V7.34
					V6.538c-0.206,0.169-0.367,0.209-0.982,0.227H5.895c-0.165,0-0.3,0.026-0.412,0.062C5.46,6.833,5.438,6.841,5.418,6.851
					c-0.001,0-0.002,0-0.004,0.001C5.095,6.992,5.08,7.341,5.08,7.398v0.887C5.441,7.951,5.922,7.99,5.922,7.99h2.405v1.611H6.926
					L6.951,9.61H5.595c-0.165,0-0.301,0.026-0.412,0.061C5.16,9.678,5.138,9.686,5.118,9.695c-0.001,0-0.003,0.001-0.004,0.001
					c-0.318,0.14-0.333,0.489-0.334,0.547v0.887c0.338-0.313,0.783-0.308,0.837-0.306h0.005h1.646h0.991
					c-0.275,1.096-1.278,2.398-3.104,3.068h0.001v0c-0.219,0.083-0.374,0.294-0.374,0.542c0,0.321,0.26,0.581,0.581,0.581
					c0.068,0,0.135-0.013,0.195-0.035l0.001,0.001c0,0,0,0.002-0.001,0.003c1.901-0.729,3.077-1.793,3.56-2.936
					c0.766,1.58,2.198,2.632,4.091,3.169v-1.263c-1.672-0.539-2.89-1.718-3.445-3.132h0.854l0.006,0.002h1.747v-0.002h0.005
					l0.003,0.002c0,0,0.259,0.008,0.511-0.03l0,0c0,0,0.458-0.055,0.458-0.618v-0.002V9.374c-0.206,0.169-0.366,0.209-0.982,0.228
					H9.592z"/>
				<path fill="#FFFFFF" d="M19.777,9.602V7.99h2.514V7.983L22.3,7.99c0,0,0.259,0.007,0.511-0.03c0,0,0.457-0.054,0.457-0.618V7.34
					V6.538c-0.206,0.169-0.365,0.209-0.981,0.227H16.08c-0.165,0-0.301,0.026-0.412,0.062c-0.022,0.007-0.044,0.014-0.065,0.024
					c-0.001,0-0.003,0-0.004,0.001c-0.318,0.14-0.334,0.489-0.334,0.546v0.887c0.361-0.334,0.843-0.295,0.843-0.295h2.406v1.611
					h-1.401l0.023,0.008h-1.355c-0.165,0-0.301,0.026-0.412,0.061c-0.022,0.007-0.044,0.015-0.064,0.024
					c-0.002,0-0.003,0.001-0.004,0.001c-0.319,0.14-0.334,0.489-0.334,0.547v0.887c0.338-0.313,0.782-0.308,0.837-0.306h0.005h1.646
					h0.991c-0.275,1.096-1.279,2.398-3.104,3.068h0.001v0c-0.218,0.083-0.374,0.294-0.374,0.542c0,0.321,0.259,0.581,0.58,0.581
					c0.069,0,0.135-0.013,0.196-0.035l0,0.001c0,0,0,0.002,0,0.003c1.901-0.729,3.076-1.793,3.56-2.936
					c0.765,1.58,2.197,2.632,4.09,3.169v-1.263c-1.672-0.539-2.891-1.718-3.445-3.132h0.855l0.006,0.002h1.745v-0.002h0.006
					l0.003,0.002c0,0,0.26,0.008,0.511-0.03l0,0c0,0,0.457-0.055,0.457-0.618v-0.002V9.374c-0.206,0.169-0.366,0.209-0.981,0.228
					H19.777z"/>
				<path fill="#FFFFFF" d="M12.088,21.024L12.088,21.024l-2.697-0.001v-0.664h2.829c-0.006-0.001-0.01-0.004-0.01-0.004
					s0.658-0.023,0.658-0.726v-3.528c-0.155,0.189-1.233,0.209-1.233,0.209H5.825c-1.236,0-1.173,0.79-1.173,0.79v2.662
					c0,0,0.001,0.004,0.002,0.009v0.825c0.253-0.168,0.572-0.223,0.735-0.239c0.024,0.001,0.047,0.001,0.068,0.002h2.713v0.664
					H5.383v0.004H5.19c-0.164,0-0.3,0.025-0.411,0.062c-0.023,0.008-0.045,0.015-0.064,0.023c-0.002,0-0.003,0.001-0.005,0.002
					c-0.319,0.139-0.334,0.488-0.335,0.547v0.645C4.714,21.992,5.158,21.998,5.212,22v0.011l0.006-0.01h0.165v0.001h2.14
					c-0.611,0.561-1.487,1.037-2.856,1.449c0.004,0.001,0.008,0.002,0.008,0.002v0.001c-0.221,0.062-0.383,0.265-0.383,0.506
					c0,0.291,0.235,0.526,0.526,0.526c0.063,0,0.123-0.011,0.18-0.031c1.187-0.361,2.401-0.852,3.174-1.642v2.107h1.22v-2.177
					c0.925,0.944,2.483,1.532,3.799,1.895v-1.061c-1.037-0.338-2.458-0.993-3.108-1.576h2.005v-0.003h0.126v-0.003h0.006
					l0.002,0.003c0,0,0.259,0.008,0.511-0.03l0,0c0,0,0.458-0.055,0.458-0.618c0-0.001,0-0.002,0-0.002v-0.551
					c-0.206,0.168-0.367,0.208-0.981,0.227H12.088z M9.391,17.312h2.247v0.554H9.391V17.312z M9.391,18.795h2.247v0.563H9.391
					V18.795z M8.171,19.358H5.833v-0.563h2.339V19.358z M8.171,17.865H5.833v-0.554h2.339V17.865z"/>
				<path fill="#FFFFFF" d="M22.268,16.343h-6.443c-0.739,0-0.79,0.651-0.792,0.787v7.064c0,0,0,0.01,0.002,0.025
					c-0.002,0.02-0.002,0.036-0.002,0.045v0.827c0.295-0.195,0.677-0.239,0.801-0.245h0.374h6.09h0.446c0,0,0.163,0.021,0.339-0.043
					c0.141-0.041,0.299-0.139,0.373-0.355c0.047-0.108,0.075-0.247,0.075-0.423v-7.89C23.53,16.379,22.268,16.343,22.268,16.343
					 M22.496,23.809h-6.489v-6.477h6.489V23.809z"/>
			</g>
		</g>
		<g>
			<path fill="#F6AA00" d="M36.391,2.361c0,0-5.232-0.302-6.577,4.053c-0.601,1.942-1.44,11.573,3.194,13.13
				c7.065,2.374,11.99,1.012,12.329-8.247C45.439,8.488,45.646,2.356,36.391,2.361"/>
			<g>
				<path fill="#FFFFFF" d="M34.108,12.207c-0.249-0.25-0.603-0.36-0.995-0.36h-0.926c-0.38,0-0.429,0.261-0.435,0.359v3.41h1.36
					c0.393,0,0.746-0.111,0.995-0.36c0.424-0.424,0.381-0.974,0.381-1.54S34.532,12.63,34.108,12.207 M33.596,14.726
					c-0.127,0.154-0.297,0.232-0.551,0.232h-0.556v-2.456h0.556c0.254,0,0.424,0.08,0.551,0.233
					c0.137,0.169,0.158,0.407,0.158,0.979C33.754,14.287,33.732,14.557,33.596,14.726"/>
				<path fill="#FFFFFF" d="M36.029,12.827c-0.459,0-0.725,0.084-0.994,0.38l0.204,0.2l0.015,0.014
					c0.043,0.039,0.182,0.136,0.412,0.055c0.025-0.013,0.052-0.025,0.08-0.034c0,0,0.002-0.001,0.003-0.002v0
					c0.069-0.021,0.151-0.032,0.255-0.032c0.365,0,0.514,0.132,0.514,0.435v0.137h-0.652c-0.64,0-0.941,0.359-0.941,0.798
					c0,0.245,0.08,0.467,0.229,0.62c0.163,0.164,0.391,0.244,0.703,0.244c0.317,0,0.492-0.08,0.678-0.265v0.005
					c0.005-0.012,0.009-0.021,0.009-0.021s-0.017,0.254,0.259,0.254h0.404V13.8C37.205,13.154,36.803,12.827,36.029,12.827
					 M36.518,14.6c0,0.169-0.027,0.28-0.102,0.349c-0.121,0.117-0.243,0.132-0.434,0.132c-0.27,0-0.396-0.127-0.396-0.317
					c0-0.196,0.137-0.313,0.386-0.313h0.546V14.6z"/>
				<path fill="#FFFFFF" d="M39.809,12.857c-0.309,0-0.41,0.299-0.41,0.302l-0.454,1.403l-0.471-1.404v0
					c-0.101-0.298-0.436-0.3-0.436-0.3h-0.391l0.942,2.562l-0.116,0.34c-0.069,0.2-0.147,0.248-0.345,0.248h-0.058
					c-0.428,0-0.424,0.514-0.424,0.514v0.106h0.593c0.229,0,0.436-0.053,0.594-0.212c0.084-0.084,0.148-0.201,0.206-0.354
					l1.181-3.203H39.809z"/>
				<path fill="#FFFFFF" d="M38.949,7.768H38.53v1.708c0,0.384-0.249,0.514-0.472,0.514s-0.466-0.13-0.466-0.514V8.125
					c0-0.343-0.274-0.358-0.31-0.358h-0.395v1.805c0,0.31,0.059,0.575,0.287,0.803c0.156,0.157,0.385,0.248,0.666,0.248
					c0.26,0,0.521-0.097,0.704-0.292v0.017c0.003,0.055,0.026,0.244,0.267,0.244h0.423V8.005C39.201,7.79,39.004,7.769,38.949,7.768
					"/>
				<path fill="#FFFFFF" d="M40.404,6.611c-0.202,0-0.366,0.165-0.366,0.366c0,0.203,0.164,0.366,0.366,0.366
					S40.77,7.18,40.77,6.977C40.77,6.775,40.606,6.611,40.404,6.611"/>
				<path fill="#FFFFFF" d="M40.052,8.17v2.422h0.353v-0.001c0,0,0.353-0.013,0.353-0.41V7.768h-0.353
					C40.052,7.768,40.052,8.17,40.052,8.17"/>
				<path fill="#FFFFFF" d="M42.832,9.995c-0.168,0-0.244-0.091-0.244-0.254V8.502h0.23v0h0.002l0.001,0
					c0,0,0.126,0.003,0.247-0.015c0,0,0.223-0.063,0.223-0.335V8.113V7.799c-0.028,0.022-0.054,0.04-0.083,0.054l0.083-0.054h-0.703
					V7.015h-0.332c-0.332,0-0.372,0.328-0.372,0.328v0.478h-0.063v0.001h-0.003l-0.001-0.001c0,0-0.126-0.004-0.247,0.015
					c0,0-0.222,0.026-0.222,0.299h-0.001v0.39h0.536v1.26c0,0.401,0.243,0.808,0.817,0.808h0.387v-0.003
					c0.037-0.002,0.079-0.006,0.121-0.012c0,0,0.222-0.027,0.222-0.299l0.001-0.001V9.888c-0.092,0.074-0.164,0.098-0.402,0.107
					H42.832z"/>
				<path fill="#FFFFFF" d="M35.859,8.014c-0.303,0-0.574,0.14-0.71,0.303V8.074c-0.024-0.292-0.272-0.306-0.307-0.307h-0.381v2.824
					h0.313l-0.001-0.001c0,0,0.392-0.024,0.392-0.445V9.305c0-0.358,0.238-0.525,0.455-0.521c1.068,0.026,0.785-1.016,0.785-1.016
					C36.406,8.001,35.859,8.014,35.859,8.014"/>
				<path fill="#FFFFFF" d="M33.639,6.734V6.732h-0.353h-1.101c-0.391,0-0.43,0.292-0.433,0.38v3.479h0.297l-0.001-0.001
					c0,0,0.458-0.024,0.458-0.495V9.025h0.868l0,0h0.176V9.024h0.004v0.001c0,0,0.143,0.004,0.28-0.017c0,0,0.249-0.029,0.249-0.338
					V8.669V8.354h-0.496c-0.014,0-0.025,0.001-0.039,0.002h-0.174V8.354h-0.247h-0.621V7.405h0.613l0.001,0.001h0.5V7.405h0.003
					l0.001,0.001c0,0,0.142,0.004,0.279-0.017c0,0,0.25-0.029,0.25-0.338V7.05V6.732h-0.472C33.668,6.733,33.654,6.734,33.639,6.734
					"/>
			</g>
		</g>
	</g>
	<g>
		<path fill="#8FB13D" d="M62.57,13.566c0-0.001,0-0.002,0-0.002c0.169-0.279,0.316-0.505,0.443-0.68
			c-0.932-0.645-1.72-1.445-2.365-2.4c0.813-0.669,1.541-1.326,2.187-1.971l-0.601-0.511c-0.359-0.306-0.726,0.083-0.726,0.083
			V8.083C61.088,8.535,60.61,9,60.076,9.48c-0.239-0.454-0.455-0.932-0.646-1.434V6.614h-0.662c-0.525,0-0.521,0.557-0.521,0.557
			v5.821c0,0.429-0.18,0.645-0.537,0.645c-0.098,0-0.195-0.002-0.295-0.005c-0.026,0-0.054-0.001-0.084-0.003
			c-0.734-0.054-0.679,0.418-0.652,0.539c0.002,0.009,0.004,0.019,0.006,0.027l0,0c0.031,0.125,0.063,0.261,0.094,0.408
			c0,0.119,0.012,0.203,0.035,0.251c0.67,0,1.148-0.024,1.434-0.071c0.789-0.073,1.183-0.502,1.183-1.29v-3.081
			c0.639,1.337,1.412,2.398,2.318,3.186C61.874,13.7,62.297,13.994,62.57,13.566"/>
		<path fill="#8FB13D" d="M57.818,8.44H55.32c-0.508,0-0.512,0.461-0.512,0.461v0.649h1.898c-0.367,1.226-0.955,2.25-1.759,3.073
			c-0.005,0.006-0.01,0.012-0.015,0.018c-0.281,0.318-0.273,0.583-0.221,0.745c0.029,0.057,0.059,0.113,0.089,0.172h0.001v0
			c0.082,0.162,0.168,0.33,0.257,0.506c0.023,0.047,0.036,0.083,0.036,0.107c1.409-1.169,2.316-2.734,2.723-4.693V8.44z"/>
		<path fill="#8FB13D" d="M68.567,14.423v-1.467c0.622,0.643,1.507,1.159,2.652,1.551c0.088,0.026,0.499,0.121,0.707-0.312
			c0.002-0.001,0.002-0.002,0.004-0.005c0.08-0.19,0.177-0.386,0.292-0.59c-1.028-0.143-1.995-0.501-2.902-1.075h2.186
			c0,0,0.537-0.002,0.537-0.465v-0.61h-3.476v-0.573h2.173c0,0,0.55,0.003,0.55-0.547V6.9h-6.053c-0.584,0-0.575,0.592-0.575,0.592
			v3.385h2.724v0.573h-2.912c-0.481,0-0.556,0.302-0.564,0.439v0.636h2.76c-0.554,0.42-1.277,0.762-2.165,1.029
			c-0.009,0.003-0.019,0.007-0.029,0.012c-0.61,0.203-0.338,0.714-0.338,0.714h-0.001c0.085,0.151,0.165,0.306,0.239,0.466
			c1.386-0.501,2.388-1.075,3.011-1.72v1.899h0.651C68.146,14.923,68.567,14.883,68.567,14.423 M68.567,7.831h1.576v0.61h-1.576
			V7.831z M68.567,9.372h1.576v0.609h-1.576V9.372z M67.386,9.981h-1.577V9.372h1.577V9.981z M67.386,8.441h-1.577v-0.61h1.577
			V8.441z"/>
		<path fill="#8FB13D" d="M74.688,12.525c-0.526,0-0.532,0.556-0.532,0.556v0.842h0.573c0,0.385-0.156,0.569-0.372,0.656
			c-0.006,0.004-0.016,0.008-0.026,0.011c-0.142,0.044-0.166,0.159-0.17,0.216v0.399c0.764,0,1.286-0.435,1.356-1.247v-1.433H74.688
			z"/>
		<path fill="#8FB13D" d="M84.024,8.527c0,0,0.369,0.31,0.752-0.045c0-0.001,0-0.001,0.001-0.001
			c0.14-0.133,0.269-0.252,0.382-0.354c-0.27-0.269-0.64-0.6-1.107-0.991c-0.318-0.267-0.619-0.048-0.715,0.037l-0.4,0.381
			C83.326,7.872,83.688,8.197,84.024,8.527L84.024,8.527z"/>
		<path fill="#8FB13D" d="M85.499,13.399c0.014-0.058,0.027-0.119,0.041-0.182c0.05-0.326-0.07-0.48-0.167-0.549
			c-0.03-0.016-0.063-0.032-0.094-0.049c-0.005-0.001-0.009-0.002-0.009-0.002l0.002-0.001c-0.208-0.108-0.435-0.239-0.687-0.404
			c-0.071,0.573-0.156,1.015-0.251,1.327c-0.071,0.238-0.239,0.286-0.502,0.143c-0.191-0.12-0.358-0.359-0.502-0.717
			c0.577-0.48,1.106-1.003,1.592-1.562c0.311-0.41-0.052-0.728-0.052-0.728l-0.095-0.077l-0.441-0.357
			c-0.406,0.573-0.849,1.087-1.326,1.541c-0.096-0.454-0.168-1.003-0.215-1.648h2.231c0.066,0,0.528-0.022,0.528-0.529V9.059h-2.796
			c-0.048-0.789-0.071-1.601-0.071-2.437H81.98c-0.504,0-0.48,0.581-0.48,0.581V7.203c0.031,0.647,0.057,1.268,0.076,1.856h-1.648
			V8.092c0.279-0.028,0.54-0.061,0.786-0.096c0.032-0.011,0.483-0.167,0.37-0.636l-0.117-0.486
			c-0.953,0.116-1.939,0.216-2.956,0.301c-0.007,0.001-0.014,0.002-0.021,0.002c-0.622,0.054-0.625,0.423-0.614,0.521
			c0.014,0.089,0.027,0.183,0.044,0.286c0.023,0.167,0.035,0.274,0.035,0.323c0.096,0,0.227-0.012,0.395-0.036
			c0.357-0.024,0.621-0.047,0.788-0.071v0.86h-1.111c-0.409,0-0.429,0.352-0.429,0.408v0.667h1.54v1.111
			c-0.167,0-0.406,0.024-0.717,0.071c-0.096,0.007-0.186,0.014-0.27,0.02c-0.476,0.051-0.476,0.447-0.456,0.611l0.117,0.659
			c0.43-0.072,0.871-0.143,1.325-0.214v1.039c0,0.287-0.096,0.43-0.287,0.43c-0.094,0-0.186-0.003-0.277-0.005
			c-0.032,0.003-0.079,0.003-0.143,0c-0.414-0.028-0.469,0.182-0.447,0.349c0.02,0.063,0.039,0.127,0.057,0.198l0,0
			c0.037,0.146,0.068,0.313,0.094,0.498c0.598,0,1.088-0.025,1.469-0.072c0.551-0.024,0.825-0.334,0.825-0.932v-1.684
			c0.273-0.043,0.558-0.082,0.85-0.116v-0.001h0.004c0.044-0.004,0.086-0.009,0.131-0.014c0.163-0.036,0.418-0.16,0.431-0.577
			v-0.006c0.001-0.186,0.007-0.39,0.019-0.611c-0.145,0.024-0.383,0.06-0.718,0.108c-0.31,0.048-0.549,0.084-0.716,0.108v-0.968
			h1.72c0.022,0.812,0.132,1.636,0.323,2.472c-0.405,0.3-0.85,0.56-1.332,0.78c-0.003,0.002-0.005,0.004-0.008,0.005
			c-0.489,0.244-0.15,0.654-0.15,0.654v0c0.135,0.172,0.251,0.337,0.343,0.495c0.524-0.286,1.039-0.572,1.541-0.859
			c0.43,0.836,1.051,1.253,1.863,1.253c0.43,0,0.753-0.214,0.967-0.645c0.094-0.141,0.188-0.409,0.283-0.797
			C85.481,13.467,85.489,13.435,85.499,13.399"/>
		<path fill="#8FB13D" d="M89.997,8.237c0.112,0.137,0.355,0.326,0.738,0.053l0,0l0.442-0.307c-0.058-0.097-0.115-0.186-0.173-0.273
			c0,0,0-0.001-0.001-0.002c-0.018-0.026-0.044-0.064-0.077-0.108c-0.082-0.116-0.164-0.223-0.247-0.318
			c-0.096-0.121-0.188-0.235-0.244-0.304c-0.006-0.009-0.012-0.017-0.018-0.026c-0.223-0.276-0.448-0.19-0.534-0.141l-0.64,0.418
			c0.143,0.192,0.368,0.49,0.68,0.896C89.949,8.167,89.974,8.202,89.997,8.237"/>
		<path fill="#8FB13D" d="M90.354,14.388V8.808h-0.648c-0.427,0-0.46,0.348-0.461,0.429v5.627h0.667
			C89.911,14.864,90.354,14.869,90.354,14.388"/>
		<path fill="#8FB13D" d="M88.455,14.4V8.521c0.13-0.34,0.252-0.691,0.372-1.054C88.979,7,88.679,6.86,88.58,6.829l-0.734-0.206
			c-0.295,1.201-0.729,2.31-1.305,3.325c0,0.002,0,0.003-0.001,0.006c-0.175,0.324-0.167,0.662-0.14,0.857
			c0.011,0.052,0.021,0.104,0.03,0.156c0.002,0.006,0.002,0.01,0.002,0.01l0,0c0.062,0.325,0.115,0.642,0.159,0.95
			c0.238-0.335,0.43-0.622,0.573-0.86c0.071-0.095,0.119-0.167,0.144-0.214v4.013h0.727C88.035,14.864,88.455,14.869,88.455,14.4"/>
		<path fill="#8FB13D" d="M92.132,7.16c-0.57,0-0.595,0.428-0.595,0.492v0.655h1.72v4.658c0,0.55-0.263,0.824-0.789,0.824h-0.779
			c-0.494,0-0.366,0.403-0.366,0.403l-0.003-0.001c0.066,0.224,0.115,0.458,0.146,0.708c0.19,0,0.478-0.012,0.861-0.035h0.751
			c0.859-0.072,1.29-0.609,1.29-1.613V7.16H92.132z"/>
		<path fill="#8FB13D" d="M103.002,10.976V6.945h-5.967c-0.631,0-0.661,0.505-0.661,0.585v4.145h5.974
			C102.348,11.675,103.002,11.666,103.002,10.976 M101.747,10.635h-4.119V8.02h4.119V10.635z"/>
		<path fill="#8FB13D" d="M98.749,12.561l-0.124-0.098l-0.64-0.502c-0.649,0.709-1.339,1.311-2.068,1.807
			c-0.006,0.005-0.01,0.008-0.016,0.012c-0.379,0.272-0.228,0.536-0.146,0.636l0.546,0.591c0.786-0.517,1.562-1.15,2.33-1.9
			C98.903,12.846,98.84,12.664,98.749,12.561"/>
		<path fill="#8FB13D" d="M102.559,14.614c0,0,0.369,0.36,0.742,0v0l0.597-0.574c-0.655-0.573-1.398-1.173-2.229-1.798
			c-0.411-0.31-0.754,0-0.756,0.002l-0.491,0.471c0.73,0.607,1.44,1.242,2.135,1.901L102.559,14.614z"/>
		<path fill="#8FB13D" d="M107.047,11.318c0,0,0.36-0.155,0.304-0.604v-0.002c-0.037-0.277-0.064-0.508-0.084-0.686l-0.32,0.14
			c-0.112,0.037-0.198,0.074-0.254,0.111V9.238h0.286c0,0,0.349,0.004,0.395-0.286V8.199h-0.681V6.658h-0.756
			c-0.345,0-0.387,0.282-0.391,0.385v1.156h-0.45c-0.381,0-0.374,0.381-0.374,0.381v0.657h0.824v1.433
			c-0.171,0.057-0.348,0.12-0.527,0.186c-0.319,0.122-0.307,0.455-0.29,0.583l0.009,0.05h0.001l0.127,0.722
			c0.072-0.023,0.166-0.059,0.287-0.108c0.166-0.071,0.298-0.131,0.394-0.179v1.541c0,0.287-0.083,0.43-0.251,0.43
			c-0.067,0-0.129,0-0.186-0.001h-0.002c-0.381-0.023-0.374,0.272-0.357,0.389c0.003,0.016,0.006,0.03,0.009,0.046v0.001
			c0.011,0.065,0.022,0.135,0.035,0.209c0.023,0.167,0.048,0.288,0.071,0.358c0.478,0,0.836-0.024,1.076-0.071
			c0.5-0.048,0.751-0.371,0.751-0.968v-2.401c0.048-0.023,0.107-0.047,0.179-0.071C106.935,11.363,106.993,11.34,107.047,11.318"/>
		<path fill="#8FB13D" d="M109.185,6.658c-0.452,0-0.45,0.465-0.45,0.465V9.56c-0.006-0.026-0.016-0.055-0.024-0.086l-0.34-1.083
			c-0.042-0.138-0.082-0.262-0.12-0.374c-0.072-0.219-0.252-0.187-0.317-0.167l-0.024,0.007l-0.571,0.199
			c0.168,0.598,0.288,1.016,0.358,1.254c0.041,0.143,0.076,0.267,0.108,0.38c0,0,0.124,0.367,0.451,0.252l0.479-0.167v0.501
			c-0.396,0.363-0.8,0.705-1.21,1.03c-0.004,0.004-0.007,0.007-0.011,0.011c-0.438,0.355-0.169,0.723-0.169,0.723l0.423,0.529
			c0.263-0.287,0.573-0.609,0.932-0.967c-0.059,0.97-0.417,1.727-1.073,2.271c-0.37,0.369-0.066,0.649-0.066,0.649h-0.001
			c0.232,0.17,0.436,0.332,0.604,0.484c1.003-0.741,1.54-1.876,1.612-3.404c0.023-0.549,0.035-1.207,0.035-1.971V6.658H109.185z"/>
		<path fill="#8FB13D" d="M113.081,13.223c0.023-0.346-0.165-0.482-0.254-0.527c-0.015-0.006-0.028-0.011-0.043-0.019
			c-0.24-0.095-0.477-0.155-0.597-0.203l-0.014,0.597v0.108c0,0.381-0.106,0.585-0.322,0.608h-0.179
			c-0.144,0-0.228-0.095-0.251-0.287v-2.149c0.245,0.202,0.475,0.394,0.693,0.578v0c0,0,0.415,0.359,0.669-0.014l0.357-0.527
			c-0.668-0.479-1.242-0.872-1.72-1.183V9.667l0.681,0.359c0.048-0.071,0.108-0.167,0.179-0.287
			c0.229-0.413,0.425-0.766,0.586-1.062c0.23-0.422-0.115-0.606-0.174-0.634l-0.008-0.003l-0.001,0l-0.582-0.271
			c-0.216,0.478-0.442,0.967-0.681,1.469v-2.58h-0.666c-0.407,0-0.408,0.465-0.408,0.465v6.522c0,0.764,0.322,1.146,0.966,1.146
			h0.503c0.668,0,1.051-0.274,1.146-0.824c0.048-0.287,0.083-0.501,0.107-0.646C113.074,13.287,113.078,13.254,113.081,13.223"/>
		<path fill="#8FB13D" d="M62.354,19.239c0,0,0.563-0.013,0.563-0.591v-0.484H58.51c0.025-0.047,0.061-0.144,0.109-0.286
			c0.094-0.19,0.166-0.334,0.215-0.431l-0.829-0.13c-0.411-0.064-0.564,0.088-0.621,0.194c-0.009,0.03-0.021,0.059-0.031,0.088
			c0,0.003-0.001,0.006-0.001,0.006v-0.001c-0.071,0.196-0.15,0.383-0.238,0.56h-2.097c-0.392,0-0.411,0.361-0.411,0.42v0.655h1.971
			c-0.441,0.761-0.991,1.452-1.649,2.08c-0.004,0.003-0.006,0.006-0.009,0.01c-0.261,0.264-0.313,0.511-0.309,0.675
			c0.013,0.063,0.024,0.13,0.037,0.202v0.001l0,0c0.01,0.059,0.021,0.119,0.031,0.185c0.071,0.264,0.119,0.466,0.143,0.609
			c0.43-0.358,0.836-0.716,1.218-1.075v3.655h0.7c0,0,0.518,0.006,0.518-0.531v-1.116h3.619v0.143c0,0.312-0.155,0.466-0.466,0.466
			c-0.174,0-0.36-0.002-0.552-0.007H59.85c-0.717,0-0.582,0.615-0.582,0.615s0,0-0.002,0c0.041,0.15,0.076,0.305,0.105,0.467h0.788
			c0.334-0.025,0.585-0.036,0.752-0.036c0.813,0,1.219-0.371,1.219-1.11v-4.622h-4.515c0.144-0.191,0.263-0.395,0.357-0.609H62.354z
			 M60.875,23.036h-3.619v-0.645h3.619V23.036z M60.875,21.496h-3.619v-0.645h3.619V21.496z"/>
		<path fill="#8FB13D" d="M71.523,22.212c0,0,0.531,0.012,0.531-0.549v-0.561h-2.043c0.244-0.209,0.494-0.468,0.75-0.778
			c0.217-0.347,0.02-0.553-0.063-0.618l-0.507-0.36c-0.233,0.28-0.46,0.532-0.684,0.762c-0.004,0.004-0.006,0.007-0.01,0.012
			c-0.313,0.335,0,0.635,0,0.635l0.407,0.349h-1.362v-1.757h1.648h0.892c0,0,0.505-0.009,0.505-0.477v-0.633h-3.045v-0.932h-0.778
			c-0.468,0-0.477,0.422-0.477,0.422v0.51h-2.565c-0.404,0-0.44,0.348-0.443,0.443v0.666h1.326l-0.46,0.335
			c-0.315,0.229-0.05,0.589-0.007,0.644c0.034,0.042,0.069,0.086,0.108,0.134c0.238,0.311,0.405,0.525,0.501,0.645h-1.383
			c-0.486,0-0.515,0.402-0.517,0.479v0.631h2.688c-0.627,0.666-1.353,1.215-2.177,1.653c-0.008,0.007-0.017,0.012-0.027,0.019
			c-0.397,0.227-0.312,0.575-0.257,0.712c0.014,0.037,0.026,0.059,0.026,0.059l0,0c0.121,0.158,0.24,0.323,0.357,0.497
			c1.17-0.621,2.113-1.386,2.829-2.294v2.724h0.71c0,0,0.545-0.021,0.545-0.683v-2.076c0.577,0.784,1.361,1.451,2.349,2.004
			c0.099,0.048,0.507,0.213,0.793-0.168c0.002-0.001,0.002-0.002,0.003-0.002c0.15-0.201,0.297-0.396,0.438-0.58
			c-1.146-0.431-2.114-1.051-2.902-1.864H71.523z M67.288,21.103h-1.432l0.472-0.349v-0.001l0.008-0.005
			c0.051-0.039,0.332-0.274,0.049-0.607c-0.218-0.258-0.395-0.463-0.528-0.614c-0.072-0.072-0.132-0.132-0.18-0.181h1.611V21.103z"
			/>
		<path fill="#8FB13D" d="M75.756,19.253c0,0,0.484,0.316,0.788-0.098l0.384-0.524c-0.616-0.385-1.207-0.729-1.776-1.036
			c-0.392-0.202-0.621,0.076-0.656,0.125l-0.398,0.553c0.508,0.281,1.063,0.61,1.659,0.982V19.253z"/>
		<path fill="#8FB13D" d="M74.955,21.12c0,0,0.412,0.242,0.734-0.039l0,0l0.485-0.623c-0.63-0.401-1.235-0.771-1.82-1.11
			c-0.4-0.229-0.617,0.015-0.667,0.081l-0.012,0.016v0.001l-0.403,0.582C73.627,20.227,74.189,20.594,74.955,21.12L74.955,21.12z"/>
		<path fill="#8FB13D" d="M79.905,25.278c0,0,0.006,0.003,0.013,0.007c0.017,0.012,0.034,0.021,0.052,0.032
			c0.146,0.083,0.518,0.238,0.806-0.129h0.001l0.45-0.575c-1.099-0.62-2.149-1.158-3.152-1.612c0.022-0.071,0.06-0.154,0.107-0.25
			c0.023-0.072,0.035-0.12,0.035-0.144h2.484c0,0,0.561-0.004,0.561-0.522v-0.589h-2.83c0.072-0.717,0.12-1.767,0.144-3.152
			c0.023-0.43,0.035-0.765,0.035-1.004H77.85c-0.519,0-0.539,0.538-0.539,0.538l-0.002-0.002c-0.029,1.206-0.084,2.414-0.166,3.62
			H73.53c-0.557,0-0.579,0.457-0.58,0.514v0.007v0.591h3.87c-0.276,0.724-1.341,1.342-3.188,1.856c-0.005,0-0.007,0.002-0.012,0.004
			c-0.577,0.172-0.234,0.705-0.234,0.705h-0.002c0.119,0.156,0.238,0.327,0.354,0.516c1.648-0.454,2.867-1.039,3.655-1.755
			C78.372,24.404,79.209,24.852,79.905,25.278L79.905,25.278z"/>
		<path fill="#8FB13D" d="M87.187,22.798c0,0,0.393,0.531,0.906,0.188l0.515-0.344c-0.352-0.555-0.695-1.037-1.033-1.449
			c-0.258-0.319-0.611-0.114-0.7-0.056l-0.56,0.395C86.592,21.896,86.883,22.319,87.187,22.798"/>
		<path fill="#8FB13D" d="M88.034,18.702c0.144-0.358,0.274-0.728,0.395-1.111l-0.6-0.149c-0.473-0.118-0.641,0.147-0.689,0.265
			c-0.386,1.058-0.779,1.928-1.184,2.607v-1.646h-1.434c0.024-0.049,0.048-0.133,0.072-0.251c0.119-0.382,0.215-0.682,0.286-0.896
			l-0.589-0.102c-0.66-0.104-0.804,0.46-0.804,0.46c-0.061,0.23-0.133,0.493-0.219,0.789h-0.445c-0.444,0-0.451,0.518-0.451,0.518
			v6.36h1.184h1.217h0.496c0.096-0.001,0.687-0.029,0.687-0.635v-4.452c0.217,0.088,0.411,0.181,0.587,0.277v-0.001
			c0,0,0.005,0.004,0.012,0.008c0.012,0.007,0.023,0.013,0.034,0.021c0.114,0.06,0.414,0.176,0.594-0.167
			c0.043-0.086,0.087-0.177,0.136-0.282c0.12-0.214,0.201-0.37,0.251-0.465h1.469c0,0.813-0.013,1.624-0.036,2.437
			c-0.024,0.621-0.036,1.11-0.036,1.469c-0.023,0.406-0.286,0.609-0.788,0.609c-0.192,0-0.383-0.006-0.571-0.015
			c-0.006,0-0.012,0.001-0.019,0c-0.646-0.012-0.529,0.57-0.529,0.57h-0.001c0.045,0.183,0.086,0.378,0.117,0.59
			c0.691,0,1.242-0.012,1.647-0.035c0.812-0.048,1.255-0.514,1.326-1.397c0.047-1.935,0.084-3.726,0.107-5.374H88.034z
			 M84.773,24.481h-1.366v-2.125h1.366V24.481z M84.773,21.246h-1.366v-1.47h1.366V21.246z"/>
		<path fill="#8FB13D" d="M93.683,22.798l0.191-4.884h-0.825c-0.546,0-0.554,0.513-0.551,0.593v0.011l0,0l0.159,4.843h0.651
			C93.413,23.352,93.663,23.282,93.683,22.798"/>
		<path fill="#8FB13D" d="M93.34,25.331c0.15-0.013,0.463-0.097,0.463-0.613V24.04h-0.771c-0.481,0-0.481,0.494-0.481,0.494v0.797
			H93.34z"/>
		<path fill="#8FB13D" d="M117.2,17.68c0.175,0,0.317-0.142,0.317-0.316c0-0.176-0.143-0.317-0.317-0.317s-0.316,0.142-0.316,0.317
			C116.884,17.538,117.025,17.68,117.2,17.68"/>
		<path fill="#8FB13D" d="M108.796,22.32c-0.222-0.22-0.535-0.318-0.882-0.318h-0.822c-0.335,0-0.379,0.23-0.383,0.318v3.022h1.205
			c0.347,0,0.66-0.1,0.882-0.319c0.375-0.376,0.338-0.863,0.338-1.365S109.171,22.696,108.796,22.32 M108.341,24.555
			c-0.113,0.136-0.263,0.206-0.487,0.206h-0.494v-2.177h0.494c0.225,0,0.374,0.07,0.487,0.207c0.122,0.15,0.141,0.36,0.141,0.867
			S108.463,24.404,108.341,24.555"/>
		<path fill="#8FB13D" d="M104.873,18.022c0,0.202-0.474,0.213-0.474,0.213c-0.262,0-0.497,0.121-0.614,0.262v-0.21
			c-0.021-0.253-0.236-0.265-0.266-0.265h-0.329v2.444h0.609v-1.114c0-0.31,0.206-0.455,0.395-0.45
			C105.118,18.924,104.873,18.022,104.873,18.022"/>
		<path fill="#8FB13D" d="M102.372,22.898h-0.364v1.479c0,0.332-0.216,0.445-0.408,0.445s-0.402-0.113-0.402-0.445v-1.169
			c0-0.296-0.236-0.309-0.269-0.31h-0.342v1.563c0,0.268,0.052,0.497,0.249,0.694c0.136,0.137,0.333,0.217,0.577,0.217
			c0.226,0,0.45-0.086,0.61-0.255v0.015c0.001,0.048,0.021,0.211,0.229,0.211h0.366v-2.238
			C102.59,22.919,102.418,22.9,102.372,22.898"/>
		<path fill="#8FB13D" d="M103.539,21.897c-0.175,0-0.317,0.142-0.317,0.316s0.143,0.317,0.317,0.317s0.316-0.143,0.316-0.317
			S103.714,21.897,103.539,21.897"/>
		<path fill="#8FB13D" d="M110.499,22.871c-0.408,0-0.643,0.074-0.883,0.337l0.182,0.177l0.014,0.013
			c0.038,0.034,0.16,0.121,0.365,0.048c0.021-0.012,0.045-0.021,0.069-0.03c0.002,0,0.003,0,0.003,0
			c0.062-0.02,0.134-0.028,0.227-0.028c0.323,0,0.455,0.117,0.455,0.384v0.122h-0.578c-0.567,0-0.835,0.319-0.835,0.708
			c0,0.217,0.071,0.414,0.202,0.55c0.146,0.145,0.348,0.215,0.624,0.215c0.282,0,0.437-0.07,0.601-0.233v0.004
			c0.005-0.012,0.007-0.02,0.007-0.02s-0.014,0.227,0.23,0.227h0.358v-1.609C111.54,23.161,111.184,22.871,110.499,22.871
			 M110.931,24.441c0,0.15-0.023,0.249-0.089,0.311c-0.108,0.102-0.216,0.116-0.386,0.116c-0.239,0-0.352-0.112-0.352-0.281
			c0-0.173,0.121-0.276,0.343-0.276h0.483V24.441z"/>
		<path fill="#8FB13D" d="M113.849,22.898c-0.274,0-0.364,0.265-0.364,0.267l-0.402,1.244l-0.418-1.244v-0.001
			c-0.088-0.264-0.386-0.266-0.386-0.266h-0.347l0.836,2.271l-0.104,0.301c-0.061,0.178-0.131,0.22-0.305,0.22h-0.052
			c-0.378,0-0.376,0.455-0.376,0.455v0.094h0.526c0.201,0,0.385-0.046,0.525-0.188c0.074-0.075,0.131-0.178,0.183-0.313l1.047-2.839
			H113.849z"/>
		<path fill="#8FB13D" d="M107.025,18.062c-0.274,0-0.363,0.265-0.364,0.266l-0.401,1.244l-0.418-1.244v-0.001
			c-0.089-0.264-0.386-0.265-0.386-0.265h-0.346l0.835,2.27l-0.104,0.301c-0.062,0.178-0.132,0.221-0.305,0.221h-0.053
			c-0.379,0-0.374,0.454-0.374,0.454V21.4h0.524c0.202,0,0.386-0.046,0.526-0.187c0.074-0.075,0.131-0.178,0.184-0.314l1.045-2.838
			H107.025z"/>
		<path fill="#8FB13D" d="M103.233,23.246v2.097h0.306h-0.001c0,0,0.306-0.012,0.306-0.355v-2.089h-0.306
			C103.233,22.898,103.233,23.246,103.233,23.246"/>
		<path fill="#8FB13D" d="M117.505,20.136v-2.088H117.2c-0.306,0-0.305,0.348-0.305,0.348v2.097h0.305v-0.001
			C117.2,20.491,117.505,20.48,117.505,20.136"/>
		<path fill="#8FB13D" d="M105.64,24.826c-0.145,0-0.21-0.079-0.21-0.22v-1.072h0.198v-0.001h0.003v0.001
			c0,0,0.108,0.003,0.214-0.013c0,0,0.192-0.055,0.192-0.291v-0.033v-0.271c-0.023,0.02-0.046,0.035-0.071,0.046l0.071-0.046h-0.607
			v-0.679h-0.288c-0.286,0-0.322,0.284-0.322,0.284v0.413h-0.055v0.001h-0.002v-0.001c0,0-0.109-0.003-0.214,0.013
			c0,0-0.192,0.022-0.192,0.259v0.337h0.463v1.091c0,0.348,0.212,0.699,0.709,0.699h0.333v-0.002
			c0.032-0.002,0.069-0.005,0.106-0.011c0,0,0.19-0.023,0.19-0.259V25.07v-0.337c-0.077,0.065-0.142,0.085-0.347,0.093H105.64z"/>
		<path fill="#8FB13D" d="M119.006,19.95c-0.117,0-0.222-0.014-0.316-0.041c-0.018,0.006-0.051-0.004-0.105-0.038
			c0,0-0.001,0-0.002-0.001c-0.024-0.011-0.047-0.022-0.068-0.035c-0.116-0.05-0.201-0.025-0.257,0.011l-0.269,0.269
			c0.136,0.137,0.292,0.23,0.468,0.281c0.14,0.04,0.319,0.06,0.541,0.06c0.293,0,0.532-0.063,0.712-0.19
			c0.194-0.137,0.291-0.33,0.291-0.582c0-0.418-0.235-0.65-0.703-0.695l-0.373-0.036c-0.163-0.015-0.245-0.084-0.245-0.204
			c0-0.151,0.112-0.228,0.336-0.228c0.116,0,0.216,0.013,0.303,0.035v-0.001c0,0,0,0.001,0.003,0.001
			c0.017,0.005,0.032,0.009,0.048,0.016c0.086,0.02,0.268,0.032,0.44-0.139l0.119-0.121c-0.197-0.184-0.498-0.276-0.904-0.276
			c-0.253,0-0.467,0.063-0.636,0.19c-0.186,0.14-0.277,0.327-0.277,0.563c0,0.396,0.229,0.617,0.691,0.663l0.372,0.036
			c0.166,0.016,0.25,0.089,0.25,0.219C119.424,19.869,119.284,19.95,119.006,19.95"/>
		<path fill="#8FB13D" d="M99.88,23.111c-0.262,0-0.496,0.121-0.614,0.262v-0.209c-0.022-0.253-0.235-0.265-0.266-0.266h-0.33v2.444
			h0.272h-0.001c0,0,0.339-0.021,0.339-0.385v-0.729c0-0.309,0.207-0.455,0.394-0.449c0.926,0.021,0.68-0.881,0.68-0.881
			C100.354,23.101,99.88,23.111,99.88,23.111"/>
		<path fill="#8FB13D" d="M102.751,19.112c-0.009-0.309-0.098-0.562-0.267-0.757c-0.188-0.214-0.443-0.321-0.765-0.321
			c-0.311,0-0.56,0.104-0.744,0.313c-0.19,0.219-0.286,0.517-0.286,0.896c0,0.809,0.364,1.213,1.095,1.213
			c0.203,0,0.375-0.032,0.518-0.095c0.124-0.055,0.252-0.147,0.382-0.277l-0.166-0.162c-0.112-0.11-0.304-0.07-0.413-0.032
			c-0.026,0.012-0.054,0.022-0.081,0.031c-0.002,0.001-0.003,0.001-0.003,0.001h0.001c-0.073,0.022-0.15,0.034-0.231,0.034
			c-0.162,0-0.288-0.048-0.381-0.146c-0.092-0.097-0.138-0.224-0.138-0.382h1.182c0.037,0,0.282-0.01,0.299-0.214v-0.049
			C102.751,19.142,102.751,19.124,102.751,19.112 M101.271,19.023c0.002-0.097,0.021-0.181,0.054-0.254
			c0.073-0.163,0.204-0.245,0.395-0.245c0.191,0,0.324,0.082,0.396,0.245c0.032,0.073,0.052,0.157,0.055,0.254H101.271z"/>
		<path fill="#8FB13D" d="M99.887,18.294L99.887,18.294l-0.399,1.23l-0.412-1.25c-0.061-0.186-0.243-0.211-0.314-0.213h-0.378
			l0.872,2.367h0.24c0.047-0.002,0.23-0.021,0.314-0.247l0.776-2.12h-0.35C99.971,18.062,99.887,18.294,99.887,18.294"/>
		<path fill="#8FB13D" d="M98.283,20.175c0-0.012,0-0.021,0.002-0.03v-0.28h-1.499v-0.786h1.029c0,0,0.247,0.002,0.247-0.223v-0.34
			h-1.276v-0.759h1.246c0,0,0.253-0.004,0.253-0.245v-0.318h-1.869c-0.229,0-0.259,0.18-0.262,0.246v2.989h1.864
			C98.097,20.418,98.285,20.372,98.283,20.175"/>
		<path fill="#8FB13D" d="M97.957,22.004L97.957,22.004l-0.305-0.001h-0.951c-0.34,0-0.374,0.252-0.375,0.329v3.011h0.257h-0.002
			c0,0,0.397-0.021,0.397-0.428v-0.928h0.751h0.152v-0.002h0.003l0.001,0.002c0,0,0.123,0.004,0.242-0.016
			c0,0,0.217-0.024,0.217-0.292l0,0v-0.274h-0.432c-0.011,0.001-0.021,0.001-0.034,0.001h-0.149v-0.001h-0.213h-0.538v-0.82h0.531
			v0.001h0.433v-0.001h0.003l0.001,0.001c0,0,0.123,0.003,0.241-0.015c0,0,0.218-0.026,0.218-0.293v-0.001v-0.274h-0.409
			C97.983,22.003,97.971,22.003,97.957,22.004"/>
		<path fill="#8FB13D" d="M109.891,17.366c-0.22-0.222-0.534-0.32-0.882-0.32h-0.822c-0.335,0-0.379,0.23-0.383,0.318v3.022h1.205
			c0.348,0,0.662-0.1,0.882-0.319c0.375-0.376,0.338-0.863,0.338-1.365S110.266,17.739,109.891,17.366 M109.436,19.598
			c-0.113,0.137-0.263,0.207-0.488,0.207h-0.493v-2.177h0.493c0.226,0,0.375,0.069,0.488,0.207c0.122,0.149,0.141,0.36,0.141,0.867
			C109.576,19.208,109.558,19.447,109.436,19.598"/>
		<path fill="#8FB13D" d="M111.594,17.914c-0.408,0-0.643,0.075-0.882,0.338l0.18,0.176l0.014,0.014
			c0.039,0.034,0.162,0.12,0.365,0.048c0.022-0.012,0.046-0.021,0.071-0.03c0.001,0,0.002-0.001,0.003-0.001l0,0
			c0.062-0.019,0.133-0.028,0.226-0.028c0.323,0,0.454,0.118,0.454,0.386v0.121h-0.575c-0.569,0-0.837,0.319-0.837,0.708
			c0,0.216,0.071,0.413,0.202,0.549c0.146,0.146,0.348,0.216,0.625,0.216c0.281,0,0.436-0.07,0.599-0.234v0.004
			c0.006-0.011,0.009-0.019,0.009-0.019s-0.016,0.227,0.229,0.227h0.358v-1.61C112.635,18.204,112.278,17.914,111.594,17.914
			 M112.024,19.485c0,0.15-0.022,0.249-0.089,0.31c-0.107,0.104-0.215,0.117-0.385,0.117c-0.238,0-0.353-0.112-0.353-0.281
			c0-0.173,0.122-0.276,0.344-0.276h0.482V19.485z"/>
		<path fill="#8FB13D" d="M114.943,17.942c-0.274,0-0.365,0.264-0.365,0.267l-0.401,1.243l-0.418-1.244l0,0
			c-0.089-0.265-0.386-0.266-0.386-0.266h-0.347l0.836,2.27l-0.104,0.301c-0.061,0.179-0.13,0.221-0.305,0.221h-0.052
			c-0.379,0-0.376,0.454-0.376,0.454v0.095h0.525c0.202,0,0.386-0.047,0.525-0.188c0.075-0.074,0.132-0.178,0.184-0.313l1.047-2.838
			H114.943z"/>
	</g>
</g>
</svg>
